# xmcd CD database file
#
# Track frame offsets:
#	200
#	46065
#	73420
#	126525
#	188110
#
# Disc length: 3460 seconds
#
# Revision: 0
# Processed by: cddbd v1.5PL3 Copyright (c) Steve Scherf et al.
# Submitted via: CDex 1.51
#
DISCID=4a0d8205
DTITLE=Red Garland - Keystones!
DYEAR=1977
DGENRE=Jazz
TTITLE0=Autumn Leaves
TTITLE1=It's Impossible
TTITLE2=Daahoud/New York Theme
TTITLE3=It's All Right With Me
TTITLE4=Green Dolphin Street
EXTD=YEAR: 1977
EXTT0=
EXTT1=
EXTT2=
EXTT3=
EXTT4=
PLAYORDER=
